<svg width="3905" height="3043" xmlns="http://www.w3.org/2000/svg" xmlns:xlink="http://www.w3.org/1999/xlink" xml:space="preserve" overflow="hidden"><g transform="translate(-646 -1077)"><g><rect x="650" y="1078" width="3897" height="3040" fill="#FFFFFF" fill-opacity="1"/><text fill="#000000" fill-opacity="1" font-family="Monaco,Monaco_MSFontService,sans-serif" font-style="normal" font-variant="normal" font-weight="700" font-stretch="normal" font-size="92" text-anchor="start" direction="ltr" writing-mode="lr-tb" unicode-bidi="normal" text-decoration="none" transform="matrix(1 0 0 1 2160.54 1225)">Insertion Phase</text><path d="M947 2015 4232.44 2015" stroke="#C55A11" stroke-width="13.75" stroke-linecap="butt" stroke-linejoin="miter" stroke-miterlimit="8" stroke-dasharray="110 41.25 13.75 41.25" stroke-opacity="1" fill="none" fill-rule="evenodd"/><path d="M1026.76 2559.01C1016.55 2477.64 1069.15 2402.7 1144.26 2391.63 1174.7 2387.14 1205.64 2393.85 1232.14 2410.67 1260.22 2353.32 1325.84 2331.52 1378.71 2361.99 1387.95 2367.32 1396.44 2374.07 1403.9 2382.03 1425.77 2334.49 1479.04 2315.18 1522.88 2338.89 1535.02 2345.46 1545.6 2354.95 1553.83 2366.64 1589.08 2321.68 1651.37 2316.13 1692.96 2354.24 1710.44 2370.25 1722.22 2392.34 1726.28 2416.72 1784.04 2433.8 1818.11 2498.48 1802.38 2561.19 1801.06 2566.46 1799.4 2571.63 1797.42 2576.65 1843.74 2641.99 1832.4 2735.65 1772.09 2785.83 1753.32 2801.46 1731.14 2811.57 1707.71 2815.2 1707.19 2885.5 1654.13 2942.03 1589.19 2941.47 1567.5 2941.28 1546.28 2934.6 1527.87 2922.16 1505.91 3000.97 1429.3 3045.52 1356.77 3021.66 1326.37 3011.66 1300.1 2990.51 1282.45 2961.82 1208.18 3010.36 1111.78 2984.25 1067.14 2903.5 1066.58 2902.48 1066.02 2901.45 1065.48 2900.42 1016.87 2906.59 972.846 2869.01 967.141 2816.48 964.101 2788.49 972.63 2760.46 990.456 2739.88 948.37 2713.04 934.233 2654.11 958.879 2608.27 973.098 2581.82 998.036 2564.34 1026.02 2561.19Z" stroke="#C55A11" stroke-width="6.875" stroke-linecap="butt" stroke-linejoin="miter" stroke-miterlimit="8" stroke-opacity="1" fill="#F9C8F0" fill-rule="evenodd" fill-opacity="1"/><path d="M1042.88 2750.06C1024.91 2751.58 1006.95 2747.08 991.398 2737.16M1088.31 2891.19C1081.08 2894.3 1073.51 2896.38 1065.78 2897.36M1282.4 2959C1276.97 2950.17 1272.42 2940.73 1268.83 2930.84M1533.38 2888.79C1532.58 2899.27 1530.77 2909.62 1527.96 2919.68M1641.14 2697.91C1681.88 2719.39 1707.59 2764.31 1707.22 2813.37M1797.01 2574.94C1790.41 2591.64 1780.34 2606.46 1767.58 2618.23M1726.4 2414.3C1727.52 2421.04 1728.04 2427.89 1727.95 2434.74M1538.48 2390.45C1542.32 2381.01 1547.39 2372.23 1553.56 2364.37M1397.5 2402.87C1399.06 2395.08 1401.51 2387.52 1404.8 2380.38M1232.04 2410.51C1241.63 2416.6 1250.5 2423.92 1258.46 2432.33M1031.38 2581.97C1029.28 2574.47 1027.74 2566.79 1026.77 2559.02" stroke="#C55A11" stroke-width="6.875" stroke-linecap="butt" stroke-linejoin="miter" stroke-miterlimit="8" stroke-opacity="1" fill="none" fill-rule="evenodd"/><text fill="#000000" fill-opacity="1" font-family="Monaco,Monaco_MSFontService,sans-serif" font-style="normal" font-variant="normal" font-weight="700" font-stretch="normal" font-size="73" text-anchor="start" direction="ltr" writing-mode="lr-tb" unicode-bidi="normal" text-decoration="none" transform="matrix(1 0 0 1 1196.95 2685)">Hash #1</text><path d="M2229.85 2559.01C2219.63 2477.64 2272.29 2402.7 2347.49 2391.63 2377.95 2387.14 2408.93 2393.85 2435.47 2410.67 2463.58 2353.32 2529.27 2331.52 2582.2 2361.99 2591.46 2367.32 2599.95 2374.07 2607.42 2382.03 2629.31 2334.49 2682.65 2315.18 2726.54 2338.89 2738.69 2345.46 2749.29 2354.95 2757.52 2366.64 2792.81 2321.68 2855.17 2316.13 2896.81 2354.24 2914.31 2370.25 2926.1 2392.34 2930.17 2416.72 2987.99 2433.8 3022.1 2498.48 3006.36 2561.19 3005.03 2566.46 3003.37 2571.63 3001.39 2576.65 3047.76 2641.99 3036.41 2735.65 2976.03 2785.83 2957.24 2801.46 2935.04 2811.57 2911.57 2815.2 2911.05 2885.5 2857.93 2942.03 2792.93 2941.47 2771.21 2941.28 2749.96 2934.6 2731.54 2922.16 2709.55 3000.97 2632.85 3045.52 2560.23 3021.66 2529.8 3011.66 2503.5 2990.51 2485.83 2961.82 2411.48 3010.36 2314.97 2984.25 2270.27 2903.5 2269.71 2902.48 2269.16 2901.45 2268.61 2900.42 2219.95 2906.59 2175.88 2869.01 2170.16 2816.48 2167.12 2788.49 2175.66 2760.46 2193.5 2739.88 2151.37 2713.04 2137.22 2654.11 2161.89 2608.27 2176.13 2581.82 2201.09 2564.34 2229.11 2561.19Z" stroke="#C55A11" stroke-width="6.875" stroke-linecap="butt" stroke-linejoin="miter" stroke-miterlimit="8" stroke-opacity="1" fill="#F9C8F0" fill-rule="evenodd" fill-opacity="1"/><path d="M2245.99 2750.06C2228 2751.58 2210.02 2747.08 2194.45 2737.16M2291.47 2891.19C2284.23 2894.3 2276.65 2896.38 2268.91 2897.36M2485.78 2959C2480.34 2950.17 2475.79 2940.73 2472.19 2930.84M2737.05 2888.79C2736.25 2899.27 2734.43 2909.62 2731.62 2919.68M2844.93 2697.91C2885.71 2719.39 2911.45 2764.31 2911.09 2813.37M3000.97 2574.94C2994.37 2591.64 2984.29 2606.46 2971.51 2618.23M2930.29 2414.3C2931.41 2421.04 2931.93 2427.89 2931.84 2434.74M2742.16 2390.45C2745.99 2381.01 2751.08 2372.23 2757.25 2364.37M2601.01 2402.87C2602.57 2395.08 2605.03 2387.52 2608.32 2380.38M2435.36 2410.51C2444.96 2416.6 2453.84 2423.92 2461.81 2432.33M2234.47 2581.97C2232.38 2574.47 2230.83 2566.79 2229.86 2559.02" stroke="#C55A11" stroke-width="6.875" stroke-linecap="butt" stroke-linejoin="miter" stroke-miterlimit="8" stroke-opacity="1" fill="none" fill-rule="evenodd"/><text fill="#000000" fill-opacity="1" font-family="Monaco,Monaco_MSFontService,sans-serif" font-style="normal" font-variant="normal" font-weight="700" font-stretch="normal" font-size="73" text-anchor="start" direction="ltr" writing-mode="lr-tb" unicode-bidi="normal" text-decoration="none" transform="matrix(1 0 0 1 2400.47 2685)">Hash #2</text><path d="M3433.76 2559.01C3423.55 2477.64 3476.15 2402.7 3551.26 2391.63 3581.7 2387.14 3612.64 2393.85 3639.14 2410.67 3667.22 2353.32 3732.84 2331.52 3785.71 2361.99 3794.95 2367.32 3803.44 2374.07 3810.9 2382.03 3832.77 2334.49 3886.04 2315.18 3929.88 2338.89 3942.02 2345.46 3952.6 2354.95 3960.83 2366.64 3996.08 2321.68 4058.37 2316.13 4099.96 2354.24 4117.44 2370.25 4129.22 2392.34 4133.28 2416.72 4191.04 2433.8 4225.11 2498.48 4209.38 2561.19 4208.06 2566.46 4206.4 2571.63 4204.42 2576.65 4250.74 2641.99 4239.4 2735.65 4179.09 2785.83 4160.32 2801.46 4138.14 2811.57 4114.71 2815.2 4114.19 2885.5 4061.13 2942.03 3996.19 2941.47 3974.5 2941.28 3953.28 2934.6 3934.87 2922.16 3912.91 3000.97 3836.31 3045.52 3763.77 3021.66 3733.37 3011.66 3707.1 2990.51 3689.45 2961.82 3615.18 3010.36 3518.78 2984.25 3474.14 2903.5 3473.58 2902.48 3473.02 2901.45 3472.48 2900.42 3423.87 2906.59 3379.85 2869.01 3374.14 2816.48 3371.1 2788.49 3379.63 2760.46 3397.46 2739.88 3355.37 2713.04 3341.23 2654.11 3365.88 2608.27 3380.1 2581.82 3405.04 2564.34 3433.02 2561.19Z" stroke="#C55A11" stroke-width="6.875" stroke-linecap="butt" stroke-linejoin="miter" stroke-miterlimit="8" stroke-opacity="1" fill="#F9C8F0" fill-rule="evenodd" fill-opacity="1"/><path d="M3449.88 2750.06C3431.91 2751.58 3413.95 2747.08 3398.4 2737.16M3495.31 2891.19C3488.08 2894.3 3480.51 2896.38 3472.78 2897.36M3689.4 2959C3683.97 2950.17 3679.42 2940.73 3675.83 2930.84M3940.38 2888.79C3939.58 2899.27 3937.77 2909.62 3934.96 2919.68M4048.14 2697.91C4088.88 2719.39 4114.59 2764.31 4114.22 2813.37M4204.01 2574.94C4197.41 2591.64 4187.34 2606.46 4174.58 2618.23M4133.4 2414.3C4134.52 2421.04 4135.04 2427.89 4134.95 2434.74M3945.48 2390.45C3949.32 2381.01 3954.39 2372.23 3960.56 2364.37M3804.5 2402.87C3806.06 2395.08 3808.51 2387.52 3811.8 2380.38M3639.04 2410.51C3648.63 2416.6 3657.5 2423.92 3665.46 2432.33M3438.38 2581.97C3436.28 2574.47 3434.74 2566.79 3433.77 2559.02" stroke="#C55A11" stroke-width="6.875" stroke-linecap="butt" stroke-linejoin="miter" stroke-miterlimit="8" stroke-opacity="1" fill="none" fill-rule="evenodd"/><text fill="#000000" fill-opacity="1" font-family="Monaco,Monaco_MSFontService,sans-serif" font-style="normal" font-variant="normal" font-weight="700" font-stretch="normal" font-size="73" text-anchor="start" direction="ltr" writing-mode="lr-tb" unicode-bidi="normal" text-decoration="none" transform="matrix(1 0 0 1 3604 2685)">Hash #3</text><path d="M947 3167 4232.44 3167" stroke="#C55A11" stroke-width="13.75" stroke-linecap="butt" stroke-linejoin="miter" stroke-miterlimit="8" stroke-dasharray="110 41.25 13.75 41.25" stroke-opacity="1" fill="none" fill-rule="evenodd"/><rect x="1386.5" y="1646.5" width="888" height="122" stroke="#000000" stroke-width="3.4375" stroke-linecap="butt" stroke-linejoin="round" stroke-miterlimit="10" stroke-opacity="1" fill="none"/><text fill="#000000" fill-opacity="1" font-family="Monaco,Monaco_MSFontService,sans-serif" font-style="normal" font-variant="normal" font-weight="700" font-stretch="normal" font-size="73" text-anchor="start" direction="ltr" writing-mode="lr-tb" unicode-bidi="normal" text-decoration="none" transform="matrix(1 0 0 1 1419.02 1733)">“Midnight Library”</text><rect x="3088.5" y="1646.5" width="705" height="122" stroke="#000000" stroke-width="3.4375" stroke-linecap="butt" stroke-linejoin="round" stroke-miterlimit="10" stroke-opacity="1" fill="none"/><text fill="#000000" fill-opacity="1" font-family="Monaco,Monaco_MSFontService,sans-serif" font-style="normal" font-variant="normal" font-weight="700" font-stretch="normal" font-size="73" text-anchor="start" direction="ltr" writing-mode="lr-tb" unicode-bidi="normal" text-decoration="none" transform="matrix(1 0 0 1 3120.75 1733)">“Harry Potter”</text><text fill="#000000" fill-opacity="1" font-family="Monaco,Monaco_MSFontService,sans-serif" font-style="normal" font-variant="normal" font-weight="700" font-stretch="normal" font-size="73" text-anchor="start" direction="ltr" writing-mode="lr-tb" unicode-bidi="normal" text-decoration="none" transform="matrix(1 0 0 1 979.825 1473)">Inputs</text><text fill="#000000" fill-opacity="1" font-family="Monaco,Monaco_MSFontService,sans-serif" font-style="normal" font-variant="normal" font-weight="700" font-stretch="normal" font-size="73" text-anchor="start" direction="ltr" writing-mode="lr-tb" unicode-bidi="normal" text-decoration="none" transform="matrix(1 0 0 1 979.824 2132)">Hashes</text><text fill="#000000" fill-opacity="1" font-family="Monaco,Monaco_MSFontService,sans-serif" font-style="normal" font-variant="normal" font-weight="700" font-stretch="normal" font-size="73" text-anchor="start" direction="ltr" writing-mode="lr-tb" unicode-bidi="normal" text-decoration="none" transform="matrix(1 0 0 1 979.824 3285)">Bits</text><path d="M5.51799-4.10091 429.081 565.826 418.045 574.028-5.51799 4.10091ZM436.017 552.107 444.068 597.518 402.909 576.712Z" fill="#548235" fill-rule="nonzero" fill-opacity="1" transform="matrix(-1 0 0 1 1830.07 1768)"/><path d="M1834.25 1762.6 2566.7 2338.86 2558.19 2349.67 1825.75 1773.4ZM2569.79 2323.8 2589.46 2365.52 2544.29 2356.22Z" fill="#548235" fill-rule="nonzero" fill-opacity="1"/><path d="M1832 1761.42 3762.11 2348.93 3758.11 2362.09 1828 1774.58ZM3759.53 2333.77 3792.99 2365.52 3747.52 2373.24Z" fill="#548235" fill-rule="nonzero" fill-opacity="1"/><path d="M6.37637-2.57052 224.007 537.28 211.254 542.421-6.37637 2.57052ZM234.189 525.762 230.483 571.732 195.931 541.185Z" fill="#548235" fill-rule="nonzero" fill-opacity="1" transform="matrix(-1 0 0 1 1386.48 3024)"/><path d="M4.62453-5.08717 608.116 543.521 598.867 553.695-4.62453 5.08717ZM612.279 528.723 628.928 571.732 584.532 559.246Z" fill="#548235" fill-rule="nonzero" fill-opacity="1" transform="matrix(-1 0 0 1 2589.93 3024)"/><path d="M3799.29 3021.24 4036.53 3561.49 4023.94 3567.02 3786.71 3026.76ZM4046.36 3549.67 4044.06 3595.73 4008.59 3566.26Z" fill="#548235" fill-rule="nonzero" fill-opacity="1"/><path d="M1.92002-6.60145 2023.31 581.315 2019.47 594.518-1.92002 6.60145ZM2020.55 566.193 2054.4 597.518 2009.03 605.802Z" fill="#00C4D3" fill-rule="nonzero" fill-opacity="1" transform="matrix(-1 0 0 1 3440.4 1768)"/><path d="M3.95102-5.62628 826.686 572.134 818.784 583.387-3.95102 5.62628ZM828.964 556.933 850.869 597.518 805.258 590.69Z" fill="#00C4D3" fill-rule="nonzero" fill-opacity="1" transform="matrix(-1 0 0 1 3440.87 1768)"/><path d="M3445.92 1764.51 3781.11 2332.42 3769.27 2339.41 3434.08 1771.49ZM3789.46 2319.51 3792.66 2365.52 3753.93 2340.48Z" fill="#00C4D3" fill-rule="nonzero" fill-opacity="1"/><path d="M2596.4 3021.49 2805.87 3555.18 2793.08 3560.2 2583.6 3026.51ZM2816.16 3543.75 2812.03 3589.69 2777.76 3558.82Z" fill="#00C4D3" fill-rule="nonzero" fill-opacity="1"/><path d="M2.03427-6.56714 1795.38 548.947 1791.31 562.081-2.03427 6.56714ZM1792.88 533.778 1826.18 565.685 1780.68 573.181Z" fill="#00C4D3" fill-rule="nonzero" fill-opacity="1" transform="matrix(-1 0 0 1 3793.18 3024)"/><path d="M1392.52 3021.82 1570.56 3554.9 1557.52 3559.26 1379.48 3026.18ZM1581.42 3544.03 1574.93 3589.69 1542.3 3557.09Z" fill="#00C4D3" fill-rule="nonzero" fill-opacity="1"/><rect x="947" y="3603" width="411" height="272" stroke="#C55A11" stroke-width="10.3125" stroke-linecap="butt" stroke-linejoin="miter" stroke-miterlimit="8" stroke-opacity="1" fill="#F8CBAD" fill-opacity="1"/><text fill="#000000" fill-opacity="1" font-family="Monaco,Monaco_MSFontService,sans-serif" font-style="normal" font-variant="normal" font-weight="700" font-stretch="normal" font-size="83" text-anchor="start" direction="ltr" writing-mode="lr-tb" unicode-bidi="normal" text-decoration="none" transform="matrix(1 0 0 1 1126.67 3769)">1</text><rect x="1358" y="3603" width="410" height="272" stroke="#C55A11" stroke-width="10.3125" stroke-linecap="butt" stroke-linejoin="miter" stroke-miterlimit="8" stroke-opacity="1" fill="#F8CBAD" fill-opacity="1"/><text fill="#000000" fill-opacity="1" font-family="Monaco,Monaco_MSFontService,sans-serif" font-style="normal" font-variant="normal" font-weight="700" font-stretch="normal" font-size="83" text-anchor="start" direction="ltr" writing-mode="lr-tb" unicode-bidi="normal" text-decoration="none" transform="matrix(1 0 0 1 1537.35 3769)">1</text><rect x="1768" y="3603" width="411" height="272" stroke="#C55A11" stroke-width="10.3125" stroke-linecap="butt" stroke-linejoin="miter" stroke-miterlimit="8" stroke-opacity="1" fill="#F8CBAD" fill-opacity="1"/><text fill="#000000" fill-opacity="1" font-family="Monaco,Monaco_MSFontService,sans-serif" font-style="normal" font-variant="normal" font-weight="700" font-stretch="normal" font-size="83" text-anchor="start" direction="ltr" writing-mode="lr-tb" unicode-bidi="normal" text-decoration="none" transform="matrix(1 0 0 1 1948.03 3769)">1</text><rect x="2179" y="3603" width="411" height="272" stroke="#C55A11" stroke-width="10.3125" stroke-linecap="butt" stroke-linejoin="miter" stroke-miterlimit="8" stroke-opacity="1" fill="#F8CBAD" fill-opacity="1"/><text fill="#000000" fill-opacity="1" font-family="Monaco,Monaco_MSFontService,sans-serif" font-style="normal" font-variant="normal" font-weight="700" font-stretch="normal" font-size="83" text-anchor="start" direction="ltr" writing-mode="lr-tb" unicode-bidi="normal" text-decoration="none" transform="matrix(1 0 0 1 2358.71 3769)">0</text><rect x="2590" y="3603" width="410" height="272" stroke="#C55A11" stroke-width="10.3125" stroke-linecap="butt" stroke-linejoin="miter" stroke-miterlimit="8" stroke-opacity="1" fill="#F8CBAD" fill-opacity="1"/><text fill="#000000" fill-opacity="1" font-family="Monaco,Monaco_MSFontService,sans-serif" font-style="normal" font-variant="normal" font-weight="700" font-stretch="normal" font-size="83" text-anchor="start" direction="ltr" writing-mode="lr-tb" unicode-bidi="normal" text-decoration="none" transform="matrix(1 0 0 1 2769.39 3769)">1</text><rect x="3000" y="3603" width="411" height="272" stroke="#C55A11" stroke-width="10.3125" stroke-linecap="butt" stroke-linejoin="miter" stroke-miterlimit="8" stroke-opacity="1" fill="#F8CBAD" fill-opacity="1"/><text fill="#000000" fill-opacity="1" font-family="Monaco,Monaco_MSFontService,sans-serif" font-style="normal" font-variant="normal" font-weight="700" font-stretch="normal" font-size="83" text-anchor="start" direction="ltr" writing-mode="lr-tb" unicode-bidi="normal" text-decoration="none" transform="matrix(1 0 0 1 3180.07 3769)">0</text><rect x="3411" y="3603" width="411" height="272" stroke="#C55A11" stroke-width="10.3125" stroke-linecap="butt" stroke-linejoin="miter" stroke-miterlimit="8" stroke-opacity="1" fill="#F8CBAD" fill-opacity="1"/><text fill="#000000" fill-opacity="1" font-family="Monaco,Monaco_MSFontService,sans-serif" font-style="normal" font-variant="normal" font-weight="700" font-stretch="normal" font-size="83" text-anchor="start" direction="ltr" writing-mode="lr-tb" unicode-bidi="normal" text-decoration="none" transform="matrix(1 0 0 1 3590.75 3769)">0</text><rect x="3822" y="3603" width="410" height="272" stroke="#C55A11" stroke-width="10.3125" stroke-linecap="butt" stroke-linejoin="miter" stroke-miterlimit="8" stroke-opacity="1" fill="#F8CBAD" fill-opacity="1"/><text fill="#000000" fill-opacity="1" font-family="Monaco,Monaco_MSFontService,sans-serif" font-style="normal" font-variant="normal" font-weight="700" font-stretch="normal" font-size="83" text-anchor="start" direction="ltr" writing-mode="lr-tb" unicode-bidi="normal" text-decoration="none" transform="matrix(1 0 0 1 4001.43 3769)">1</text><text fill="#000000" fill-opacity="1" font-family="Monaco,Monaco_MSFontService,sans-serif" font-style="normal" font-variant="normal" font-weight="700" font-stretch="normal" font-size="73" text-anchor="start" direction="ltr" writing-mode="lr-tb" unicode-bidi="normal" text-decoration="none" transform="matrix(1 0 0 1 1129.53 3988)">0</text><text fill="#000000" fill-opacity="1" font-family="Monaco,Monaco_MSFontService,sans-serif" font-style="normal" font-variant="normal" font-weight="700" font-stretch="normal" font-size="73" text-anchor="start" direction="ltr" writing-mode="lr-tb" unicode-bidi="normal" text-decoration="none" transform="matrix(1 0 0 1 1540.21 3988)">1</text><text fill="#000000" fill-opacity="1" font-family="Monaco,Monaco_MSFontService,sans-serif" font-style="normal" font-variant="normal" font-weight="700" font-stretch="normal" font-size="73" text-anchor="start" direction="ltr" writing-mode="lr-tb" unicode-bidi="normal" text-decoration="none" transform="matrix(1 0 0 1 1950.89 3988)">2</text><text fill="#000000" fill-opacity="1" font-family="Monaco,Monaco_MSFontService,sans-serif" font-style="normal" font-variant="normal" font-weight="700" font-stretch="normal" font-size="73" text-anchor="start" direction="ltr" writing-mode="lr-tb" unicode-bidi="normal" text-decoration="none" transform="matrix(1 0 0 1 2361.57 3988)">3</text><text fill="#000000" fill-opacity="1" font-family="Monaco,Monaco_MSFontService,sans-serif" font-style="normal" font-variant="normal" font-weight="700" font-stretch="normal" font-size="73" text-anchor="start" direction="ltr" writing-mode="lr-tb" unicode-bidi="normal" text-decoration="none" transform="matrix(1 0 0 1 2772.25 3988)">4</text><text fill="#000000" fill-opacity="1" font-family="Monaco,Monaco_MSFontService,sans-serif" font-style="normal" font-variant="normal" font-weight="700" font-stretch="normal" font-size="73" text-anchor="start" direction="ltr" writing-mode="lr-tb" unicode-bidi="normal" text-decoration="none" transform="matrix(1 0 0 1 3182.93 3988)">5</text><text fill="#000000" fill-opacity="1" font-family="Monaco,Monaco_MSFontService,sans-serif" font-style="normal" font-variant="normal" font-weight="700" font-stretch="normal" font-size="73" text-anchor="start" direction="ltr" writing-mode="lr-tb" unicode-bidi="normal" text-decoration="none" transform="matrix(1 0 0 1 3593.61 3988)">6</text><text fill="#000000" fill-opacity="1" font-family="Monaco,Monaco_MSFontService,sans-serif" font-style="normal" font-variant="normal" font-weight="700" font-stretch="normal" font-size="73" text-anchor="start" direction="ltr" writing-mode="lr-tb" unicode-bidi="normal" text-decoration="none" transform="matrix(1 0 0 1 4004.29 3988)">7</text></g></g></svg>