<svg width="2892" height="1966" xmlns="http://www.w3.org/2000/svg" xmlns:xlink="http://www.w3.org/1999/xlink" xml:space="preserve" overflow="hidden">
<rect width="100%" height="100%" fill="white"/>
<g transform="translate(-751 -252)"><g><path d="M1971.5 492C1971.5 432.63 2019.63 384.5 2079 384.5 2138.37 384.5 2186.5 432.63 2186.5 492 2186.5 551.371 2138.37 599.5 2079 599.5 2019.63 599.5 1971.5 551.371 1971.5 492Z" stroke="#C55A11" stroke-width="6.875" stroke-linecap="butt" stroke-linejoin="miter" stroke-miterlimit="8" stroke-opacity="1" fill="#F8CBAD" fill-rule="evenodd" fill-opacity="1"/><text fill="#000000" fill-opacity="1" font-family="Monaco,Monaco_MSFontService,sans-serif" font-style="normal" font-variant="normal" font-weight="700" font-stretch="normal" font-size="64" text-anchor="start" direction="ltr" writing-mode="lr-tb" unicode-bidi="normal" text-decoration="none" transform="matrix(1 0 0 1 2039.05 515)">\</text><text fill="#000000" fill-opacity="1" font-family="Monaco,Monaco_MSFontService,sans-serif" font-style="normal" font-variant="normal" font-weight="700" font-stretch="normal" font-size="64" text-anchor="start" direction="ltr" writing-mode="lr-tb" unicode-bidi="normal" text-decoration="none" transform="matrix(1 0 0 1 2078.58 515)">0</text><text fill="#000000" fill-opacity="1" font-family="Monaco,Monaco_MSFontService,sans-serif" font-style="normal" font-variant="normal" font-weight="700" font-stretch="normal" font-size="73" text-anchor="start" direction="ltr" writing-mode="lr-tb" unicode-bidi="normal" text-decoration="none" transform="matrix(1 0 0 1 1986.86 348)">Root</text><path d="M1281.5 816C1281.5 756.629 1329.63 708.5 1389 708.5 1448.37 708.5 1496.5 756.629 1496.5 816 1496.5 875.371 1448.37 923.5 1389 923.5 1329.63 923.5 1281.5 875.371 1281.5 816Z" stroke="#C55A11" stroke-width="6.875" stroke-linecap="butt" stroke-linejoin="miter" stroke-miterlimit="8" stroke-opacity="1" fill="#F8CBAD" fill-rule="evenodd" fill-opacity="1"/><text fill="#000000" fill-opacity="1" font-family="Monaco,Monaco_MSFontService,sans-serif" font-style="normal" font-variant="normal" font-weight="700" font-stretch="normal" font-size="92" text-anchor="start" direction="ltr" writing-mode="lr-tb" unicode-bidi="normal" text-decoration="none" transform="matrix(1 0 0 1 1359.99 848)">t</text><path d="M2741.5 815C2741.5 755.629 2789.63 707.5 2849 707.5 2908.37 707.5 2956.5 755.629 2956.5 815 2956.5 874.371 2908.37 922.5 2849 922.5 2789.63 922.5 2741.5 874.371 2741.5 815Z" stroke="#C55A11" stroke-width="6.875" stroke-linecap="butt" stroke-linejoin="miter" stroke-miterlimit="8" stroke-opacity="1" fill="#F8CBAD" fill-rule="evenodd" fill-opacity="1"/><text fill="#000000" fill-opacity="1" font-family="Monaco,Monaco_MSFontService,sans-serif" font-style="normal" font-variant="normal" font-weight="700" font-stretch="normal" font-size="92" text-anchor="start" direction="ltr" writing-mode="lr-tb" unicode-bidi="normal" text-decoration="none" transform="matrix(1 0 0 1 2819.93 847)">a</text><path d="M2156.35 561.259 2816.26 693.625 2813.56 707.107 2153.65 574.741ZM2812.23 678.792 2848.62 707.126 2804.11 719.236Z" fill="#DD4E8E" fill-rule="nonzero" fill-opacity="1"/><path d="M2741.5 1138C2741.5 1078.63 2789.63 1030.5 2849 1030.5 2908.37 1030.5 2956.5 1078.63 2956.5 1138 2956.5 1197.37 2908.37 1245.5 2849 1245.5 2789.63 1245.5 2741.5 1197.37 2741.5 1138Z" stroke="#C55A11" stroke-width="6.875" stroke-linecap="butt" stroke-linejoin="miter" stroke-miterlimit="8" stroke-opacity="1" fill="#F8CBAD" fill-rule="evenodd" fill-opacity="1"/><text fill="#000000" fill-opacity="1" font-family="Monaco,Monaco_MSFontService,sans-serif" font-style="normal" font-variant="normal" font-weight="700" font-stretch="normal" font-size="92" text-anchor="start" direction="ltr" writing-mode="lr-tb" unicode-bidi="normal" text-decoration="none" transform="matrix(1 0 0 1 2819.93 1170)">p</text><path d="M2741.5 1460.5C2741.5 1400.85 2789.63 1352.5 2849 1352.5 2908.37 1352.5 2956.5 1400.85 2956.5 1460.5 2956.5 1520.15 2908.37 1568.5 2849 1568.5 2789.63 1568.5 2741.5 1520.15 2741.5 1460.5Z" stroke="#C55A11" stroke-width="6.875" stroke-linecap="butt" stroke-linejoin="miter" stroke-miterlimit="8" stroke-opacity="1" fill="#F9C8F0" fill-rule="evenodd" fill-opacity="1"/><text fill="#000000" fill-opacity="1" font-family="Monaco,Monaco_MSFontService,sans-serif" font-style="normal" font-variant="normal" font-weight="700" font-stretch="normal" font-size="92" text-anchor="start" direction="ltr" writing-mode="lr-tb" unicode-bidi="normal" text-decoration="none" transform="matrix(1 0 0 1 2819.93 1493)">p</text><path d="M2741.5 1783C2741.5 1723.63 2789.63 1675.5 2849 1675.5 2908.37 1675.5 2956.5 1723.63 2956.5 1783 2956.5 1842.37 2908.37 1890.5 2849 1890.5 2789.63 1890.5 2741.5 1842.37 2741.5 1783Z" stroke="#C55A11" stroke-width="6.875" stroke-linecap="butt" stroke-linejoin="miter" stroke-miterlimit="8" stroke-opacity="1" fill="#F8CBAD" fill-rule="evenodd" fill-opacity="1"/><text fill="#000000" fill-opacity="1" font-family="Monaco,Monaco_MSFontService,sans-serif" font-style="normal" font-variant="normal" font-weight="700" font-stretch="normal" font-size="92" text-anchor="start" direction="ltr" writing-mode="lr-tb" unicode-bidi="normal" text-decoration="none" transform="matrix(1 0 0 1 2819.93 1816)">l</text><path d="M2741.5 2106C2741.5 2046.63 2789.63 1998.5 2849 1998.5 2908.37 1998.5 2956.5 2046.63 2956.5 2106 2956.5 2165.37 2908.37 2213.5 2849 2213.5 2789.63 2213.5 2741.5 2165.37 2741.5 2106Z" stroke="#C55A11" stroke-width="6.875" stroke-linecap="butt" stroke-linejoin="miter" stroke-miterlimit="8" stroke-opacity="1" fill="#F9C8F0" fill-rule="evenodd" fill-opacity="1"/><text fill="#000000" fill-opacity="1" font-family="Monaco,Monaco_MSFontService,sans-serif" font-style="normal" font-variant="normal" font-weight="700" font-stretch="normal" font-size="92" text-anchor="start" direction="ltr" writing-mode="lr-tb" unicode-bidi="normal" text-decoration="none" transform="matrix(1 0 0 1 2819.93 2139)">e</text><path d="M2854.88 922 2854.88 995.234 2841.13 995.234 2841.12 922ZM2868.63 988.359 2848 1029.61 2827.38 988.359Z" fill="#DD4E8E" fill-rule="nonzero" fill-opacity="1"/><path d="M2854.88 1245 2854.88 1318.23 2841.13 1318.23 2841.12 1245ZM2868.63 1311.36 2848 1352.61 2827.38 1311.36Z" fill="#DD4E8E" fill-rule="nonzero" fill-opacity="1"/><path d="M2854.88 1568 2854.88 1641.23 2841.13 1641.23 2841.12 1568ZM2868.63 1634.36 2848 1675.61 2827.38 1634.36Z" fill="#DD4E8E" fill-rule="nonzero" fill-opacity="1"/><path d="M2854.88 1890 2854.88 1963.23 2841.13 1963.23 2841.12 1890ZM2868.63 1956.36 2848 1997.61 2827.38 1956.36Z" fill="#DD4E8E" fill-rule="nonzero" fill-opacity="1"/><text fill="#000000" fill-opacity="1" font-family="Monaco,Monaco_MSFontService,sans-serif" font-style="normal" font-variant="normal" font-weight="700" font-stretch="normal" font-size="73" text-anchor="start" direction="ltr" writing-mode="lr-tb" unicode-bidi="normal" text-decoration="none" transform="matrix(1 0 0 1 2971.78 1492)">app</text><text fill="#000000" fill-opacity="1" font-family="Monaco,Monaco_MSFontService,sans-serif" font-style="normal" font-variant="normal" font-weight="700" font-stretch="normal" font-size="73" text-anchor="start" direction="ltr" writing-mode="lr-tb" unicode-bidi="normal" text-decoration="none" transform="matrix(1 0 0 1 2971.78 2137)">apple</text><path d="M1.53045-6.70249 582.158 125.879 579.097 139.284-1.53045 6.70249ZM578.516 110.943 614.14 140.233 569.334 151.158Z" fill="#DD4E8E" fill-rule="nonzero" fill-opacity="1" transform="matrix(-1 0 0 1 2002.14 568)"/><path d="M1281.5 1139C1281.5 1079.63 1329.63 1031.5 1389 1031.5 1448.37 1031.5 1496.5 1079.63 1496.5 1139 1496.5 1198.37 1448.37 1246.5 1389 1246.5 1329.63 1246.5 1281.5 1198.37 1281.5 1139Z" stroke="#C55A11" stroke-width="6.875" stroke-linecap="butt" stroke-linejoin="miter" stroke-miterlimit="8" stroke-opacity="1" fill="#F8CBAD" fill-rule="evenodd" fill-opacity="1"/><text fill="#000000" fill-opacity="1" font-family="Monaco,Monaco_MSFontService,sans-serif" font-style="normal" font-variant="normal" font-weight="700" font-stretch="normal" font-size="92" text-anchor="start" direction="ltr" writing-mode="lr-tb" unicode-bidi="normal" text-decoration="none" transform="matrix(1 0 0 1 1360.15 1171)">h</text><path d="M1394.88 923 1394.88 996.234 1381.13 996.234 1381.13 923ZM1408.63 989.359 1388 1030.61 1367.38 989.359Z" fill="#DD4E8E" fill-rule="nonzero" fill-opacity="1"/><path d="M1281.5 1462C1281.5 1402.63 1329.63 1354.5 1389 1354.5 1448.37 1354.5 1496.5 1402.63 1496.5 1462 1496.5 1521.37 1448.37 1569.5 1389 1569.5 1329.63 1569.5 1281.5 1521.37 1281.5 1462Z" stroke="#C55A11" stroke-width="6.875" stroke-linecap="butt" stroke-linejoin="miter" stroke-miterlimit="8" stroke-opacity="1" fill="#F8CBAD" fill-rule="evenodd" fill-opacity="1"/><text fill="#000000" fill-opacity="1" font-family="Monaco,Monaco_MSFontService,sans-serif" font-style="normal" font-variant="normal" font-weight="700" font-stretch="normal" font-size="92" text-anchor="start" direction="ltr" writing-mode="lr-tb" unicode-bidi="normal" text-decoration="none" transform="matrix(1 0 0 1 1360.15 1494)">i</text><path d="M1394.88 1246 1394.88 1319.23 1381.13 1319.23 1381.13 1246ZM1408.63 1312.36 1388 1353.61 1367.38 1312.36Z" fill="#DD4E8E" fill-rule="nonzero" fill-opacity="1"/><path d="M1802.5 1462C1802.5 1402.63 1850.63 1354.5 1910 1354.5 1969.37 1354.5 2017.5 1402.63 2017.5 1462 2017.5 1521.37 1969.37 1569.5 1910 1569.5 1850.63 1569.5 1802.5 1521.37 1802.5 1462Z" stroke="#C55A11" stroke-width="6.875" stroke-linecap="butt" stroke-linejoin="miter" stroke-miterlimit="8" stroke-opacity="1" fill="#F9C8F0" fill-rule="evenodd" fill-opacity="1"/><text fill="#000000" fill-opacity="1" font-family="Monaco,Monaco_MSFontService,sans-serif" font-style="normal" font-variant="normal" font-weight="700" font-stretch="normal" font-size="92" text-anchor="start" direction="ltr" writing-mode="lr-tb" unicode-bidi="normal" text-decoration="none" transform="matrix(1 0 0 1 1881.3 1494)">e</text><path d="M758.5 1462C758.5 1402.63 806.63 1354.5 866 1354.5 925.371 1354.5 973.5 1402.63 973.5 1462 973.5 1521.37 925.371 1569.5 866 1569.5 806.63 1569.5 758.5 1521.37 758.5 1462Z" stroke="#C55A11" stroke-width="6.875" stroke-linecap="butt" stroke-linejoin="miter" stroke-miterlimit="8" stroke-opacity="1" fill="#F8CBAD" fill-rule="evenodd" fill-opacity="1"/><text fill="#000000" fill-opacity="1" font-family="Monaco,Monaco_MSFontService,sans-serif" font-style="normal" font-variant="normal" font-weight="700" font-stretch="normal" font-size="92" text-anchor="start" direction="ltr" writing-mode="lr-tb" unicode-bidi="normal" text-decoration="none" transform="matrix(1 0 0 1 837.182 1494)">a</text><path d="M1466.05 1207.44 1878.3 1336.31 1874.19 1349.43 1461.95 1220.56ZM1875.84 1321.13 1909.05 1353.13 1863.53 1360.5Z" fill="#DD4E8E" fill-rule="nonzero" fill-opacity="1"/><path d="M2.04363-6.56424 416.104 122.344 412.016 135.473-2.04363 6.56424ZM413.626 107.172 446.881 139.127 401.364 146.557Z" fill="#DD4E8E" fill-rule="nonzero" fill-opacity="1" transform="matrix(-1 0 0 1 1311.88 1214)"/><text fill="#000000" fill-opacity="1" font-family="Monaco,Monaco_MSFontService,sans-serif" font-style="normal" font-variant="normal" font-weight="700" font-stretch="normal" font-size="73" text-anchor="start" direction="ltr" writing-mode="lr-tb" unicode-bidi="normal" text-decoration="none" transform="matrix(1 0 0 1 2034.81 1493)">the</text><path d="M1804.5 1784.5C1804.5 1724.85 1852.63 1676.5 1912 1676.5 1971.37 1676.5 2019.5 1724.85 2019.5 1784.5 2019.5 1844.15 1971.37 1892.5 1912 1892.5 1852.63 1892.5 1804.5 1844.15 1804.5 1784.5Z" stroke="#C55A11" stroke-width="6.875" stroke-linecap="butt" stroke-linejoin="miter" stroke-miterlimit="8" stroke-opacity="1" fill="#F8CBAD" fill-rule="evenodd" fill-opacity="1"/><text fill="#000000" fill-opacity="1" font-family="Monaco,Monaco_MSFontService,sans-serif" font-style="normal" font-variant="normal" font-weight="700" font-stretch="normal" font-size="92" text-anchor="start" direction="ltr" writing-mode="lr-tb" unicode-bidi="normal" text-decoration="none" transform="matrix(1 0 0 1 1882.97 1817)">r</text><path d="M1804.5 2106C1804.5 2046.63 1852.63 1998.5 1912 1998.5 1971.37 1998.5 2019.5 2046.63 2019.5 2106 2019.5 2165.37 1971.37 2213.5 1912 2213.5 1852.63 2213.5 1804.5 2165.37 1804.5 2106Z" stroke="#C55A11" stroke-width="6.875" stroke-linecap="butt" stroke-linejoin="miter" stroke-miterlimit="8" stroke-opacity="1" fill="#F9C8F0" fill-rule="evenodd" fill-opacity="1"/><text fill="#000000" fill-opacity="1" font-family="Monaco,Monaco_MSFontService,sans-serif" font-style="normal" font-variant="normal" font-weight="700" font-stretch="normal" font-size="92" text-anchor="start" direction="ltr" writing-mode="lr-tb" unicode-bidi="normal" text-decoration="none" transform="matrix(1 0 0 1 1882.97 2139)">e</text><path d="M1281.5 1784.5C1281.5 1724.85 1329.63 1676.5 1389 1676.5 1448.37 1676.5 1496.5 1724.85 1496.5 1784.5 1496.5 1844.15 1448.37 1892.5 1389 1892.5 1329.63 1892.5 1281.5 1844.15 1281.5 1784.5Z" stroke="#C55A11" stroke-width="6.875" stroke-linecap="butt" stroke-linejoin="miter" stroke-miterlimit="8" stroke-opacity="1" fill="#F9C8F0" fill-rule="evenodd" fill-opacity="1"/><text fill="#000000" fill-opacity="1" font-family="Monaco,Monaco_MSFontService,sans-serif" font-style="normal" font-variant="normal" font-weight="700" font-stretch="normal" font-size="92" text-anchor="start" direction="ltr" writing-mode="lr-tb" unicode-bidi="normal" text-decoration="none" transform="matrix(1 0 0 1 1359.99 1817)">s</text><path d="M758.5 1784.5C758.5 1724.85 806.63 1676.5 866 1676.5 925.371 1676.5 973.5 1724.85 973.5 1784.5 973.5 1844.15 925.371 1892.5 866 1892.5 806.63 1892.5 758.5 1844.15 758.5 1784.5Z" stroke="#C55A11" stroke-width="6.875" stroke-linecap="butt" stroke-linejoin="miter" stroke-miterlimit="8" stroke-opacity="1" fill="#F9C8F0" fill-rule="evenodd" fill-opacity="1"/><text fill="#000000" fill-opacity="1" font-family="Monaco,Monaco_MSFontService,sans-serif" font-style="normal" font-variant="normal" font-weight="700" font-stretch="normal" font-size="92" text-anchor="start" direction="ltr" writing-mode="lr-tb" unicode-bidi="normal" text-decoration="none" transform="matrix(1 0 0 1 837.022 1817)">t</text><text fill="#000000" fill-opacity="1" font-family="Monaco,Monaco_MSFontService,sans-serif" font-style="normal" font-variant="normal" font-weight="700" font-stretch="normal" font-size="73" text-anchor="start" direction="ltr" writing-mode="lr-tb" unicode-bidi="normal" text-decoration="none" transform="matrix(1 0 0 1 2034.81 2138)">there</text><text fill="#000000" fill-opacity="1" font-family="Monaco,Monaco_MSFontService,sans-serif" font-style="normal" font-variant="normal" font-weight="700" font-stretch="normal" font-size="73" text-anchor="start" direction="ltr" writing-mode="lr-tb" unicode-bidi="normal" text-decoration="none" transform="matrix(1 0 0 1 1511.84 1816)">this</text><text fill="#000000" fill-opacity="1" font-family="Monaco,Monaco_MSFontService,sans-serif" font-style="normal" font-variant="normal" font-weight="700" font-stretch="normal" font-size="73" text-anchor="start" direction="ltr" writing-mode="lr-tb" unicode-bidi="normal" text-decoration="none" transform="matrix(1 0 0 1 988.871 1816)">that</text><path d="M1915.87 1568.88 1917.12 1642.12 1903.37 1642.36 1902.13 1569.12ZM1930.75 1635.01 1910.83 1676.61 1889.5 1635.71Z" fill="#DD4E8E" fill-rule="nonzero" fill-opacity="1"/><path d="M1917.87 1892 1917.88 1964.13 1904.13 1964.13 1904.12 1892ZM1931.63 1957.25 1911 1998.5 1890.38 1957.25Z" fill="#DD4E8E" fill-rule="nonzero" fill-opacity="1"/><path d="M1394.88 1569 1394.88 1642.23 1381.13 1642.23 1381.13 1569ZM1408.63 1635.36 1388 1676.61 1367.38 1635.36Z" fill="#DD4E8E" fill-rule="nonzero" fill-opacity="1"/><path d="M871.875 1569 871.875 1642.23 858.125 1642.23 858.125 1569ZM885.625 1635.36 865 1676.61 844.375 1635.36Z" fill="#DD4E8E" fill-rule="nonzero" fill-opacity="1"/><text fill="#000000" fill-opacity="1" font-family="Monaco,Monaco_MSFontService,sans-serif" font-style="normal" font-variant="normal" font-weight="700" font-stretch="normal" font-size="46" text-anchor="start" direction="ltr" writing-mode="lr-tb" unicode-bidi="normal" text-decoration="none" transform="matrix(1 0 0 1 3068.25 444)">is_finished</text><text fill="#000000" fill-opacity="1" font-family="Monaco,Monaco_MSFontService,sans-serif" font-style="normal" font-variant="normal" font-weight="700" font-stretch="normal" font-size="46" text-anchor="start" direction="ltr" writing-mode="lr-tb" unicode-bidi="normal" text-decoration="none" transform="matrix(1 0 0 1 3383.36 444)">: false</text><text fill="#000000" fill-opacity="1" font-family="Monaco,Monaco_MSFontService,sans-serif" font-style="normal" font-variant="normal" font-weight="700" font-stretch="normal" font-size="46" text-anchor="start" direction="ltr" writing-mode="lr-tb" unicode-bidi="normal" text-decoration="none" transform="matrix(1 0 0 1 3070.5 587)">is_finished</text><text fill="#000000" fill-opacity="1" font-family="Monaco,Monaco_MSFontService,sans-serif" font-style="normal" font-variant="normal" font-weight="700" font-stretch="normal" font-size="46" text-anchor="start" direction="ltr" writing-mode="lr-tb" unicode-bidi="normal" text-decoration="none" transform="matrix(1 0 0 1 3385.6 587)">: true</text><path d="M2939.5 430.5C2939.5 405.095 2959.87 384.5 2985 384.5 3010.13 384.5 3030.5 405.095 3030.5 430.5 3030.5 455.905 3010.13 476.5 2985 476.5 2959.87 476.5 2939.5 455.905 2939.5 430.5Z" stroke="#C55A11" stroke-width="6.875" stroke-linecap="butt" stroke-linejoin="miter" stroke-miterlimit="8" stroke-opacity="1" fill="#F9C8F0" fill-rule="evenodd" fill-opacity="1"/><path d="M2940.5 573.5C2940.5 548.095 2961.09 527.5 2986.5 527.5 3011.91 527.5 3032.5 548.095 3032.5 573.5 3032.5 598.905 3011.91 619.5 2986.5 619.5 2961.09 619.5 2940.5 598.905 2940.5 573.5Z" stroke="#C55A11" stroke-width="6.875" stroke-linecap="butt" stroke-linejoin="miter" stroke-miterlimit="8" stroke-opacity="1" fill="#F8CBAD" fill-rule="evenodd" fill-opacity="1"/></g></g></svg>