<svg width="3905" height="2892" xmlns="http://www.w3.org/2000/svg" xmlns:xlink="http://www.w3.org/1999/xlink" xml:space="preserve" overflow="hidden"><defs><clipPath id="clip0"><rect x="655" y="1150" width="3905" height="2892"/></clipPath><clipPath id="clip1"><rect x="655" y="1150" width="3905" height="2892"/></clipPath></defs><g clip-path="url(#clip0)" transform="translate(-655 -1150)"><g clip-path="url(#clip1)"><rect x="659" y="1154" width="3897" height="2888" fill="#FFFFFF" fill-opacity="1"/><path d="M2347.5 1655C2347.5 1580.72 2407.72 1520.5 2482 1520.5 2556.28 1520.5 2616.5 1580.72 2616.5 1655 2616.5 1729.28 2556.28 1789.5 2482 1789.5 2407.72 1789.5 2347.5 1729.28 2347.5 1655Z" stroke="#C55A11" stroke-width="6.875" stroke-linecap="butt" stroke-linejoin="miter" stroke-miterlimit="8" stroke-opacity="1" fill="#F8CBAD" fill-rule="evenodd" fill-opacity="1"/><text fill="#000000" fill-opacity="1" font-family="Monaco,Monaco_MSFontService,sans-serif" font-style="normal" font-variant="normal" font-weight="700" font-stretch="normal" font-size="64" text-anchor="start" direction="ltr" writing-mode="lr-tb" unicode-bidi="normal" text-decoration="none" transform="matrix(1 0 0 1 2441.78 1678)">\</text><text fill="#000000" fill-opacity="1" font-family="Monaco,Monaco_MSFontService,sans-serif" font-style="normal" font-variant="normal" font-weight="700" font-stretch="normal" font-size="64" text-anchor="start" direction="ltr" writing-mode="lr-tb" unicode-bidi="normal" text-decoration="none" transform="matrix(1 0 0 1 2481.31 1678)">0</text><text fill="#000000" fill-opacity="1" font-family="Monaco,Monaco_MSFontService,sans-serif" font-style="normal" font-variant="normal" font-weight="700" font-stretch="normal" font-size="73" text-anchor="start" direction="ltr" writing-mode="lr-tb" unicode-bidi="normal" text-decoration="none" transform="matrix(1 0 0 1 2384.64 1473)">Root</text><path d="M1482.5 2060.5C1482.5 1985.94 1542.94 1925.5 1617.5 1925.5 1692.06 1925.5 1752.5 1985.94 1752.5 2060.5 1752.5 2135.06 1692.06 2195.5 1617.5 2195.5 1542.94 2195.5 1482.5 2135.06 1482.5 2060.5Z" stroke="#C55A11" stroke-width="6.875" stroke-linecap="butt" stroke-linejoin="miter" stroke-miterlimit="8" stroke-opacity="1" fill="#F8CBAD" fill-rule="evenodd" fill-opacity="1"/><text fill="#000000" fill-opacity="1" font-family="Monaco,Monaco_MSFontService,sans-serif" font-style="normal" font-variant="normal" font-weight="700" font-stretch="normal" font-size="92" text-anchor="start" direction="ltr" writing-mode="lr-tb" unicode-bidi="normal" text-decoration="none" transform="matrix(1 0 0 1 1588.66 2093)">t</text><path d="M3310.5 2059.5C3310.5 1984.94 3370.94 1924.5 3445.5 1924.5 3520.06 1924.5 3580.5 1984.94 3580.5 2059.5 3580.5 2134.06 3520.06 2194.5 3445.5 2194.5 3370.94 2194.5 3310.5 2134.06 3310.5 2059.5Z" stroke="#C55A11" stroke-width="6.875" stroke-linecap="butt" stroke-linejoin="miter" stroke-miterlimit="8" stroke-opacity="1" fill="#F8CBAD" fill-rule="evenodd" fill-opacity="1"/><text fill="#000000" fill-opacity="1" font-family="Monaco,Monaco_MSFontService,sans-serif" font-style="normal" font-variant="normal" font-weight="700" font-stretch="normal" font-size="92" text-anchor="start" direction="ltr" writing-mode="lr-tb" unicode-bidi="normal" text-decoration="none" transform="matrix(1 0 0 1 3416.76 2092)">a</text><path d="M2578.35 1743.26 3413.18 1910.71 3410.48 1924.19 2575.65 1756.74ZM3409.15 1895.88 3445.53 1924.21 3401.03 1936.32Z" fill="#DD4E8E" fill-rule="nonzero" fill-opacity="1"/><path d="M3310.5 2463.5C3310.5 2388.94 3370.94 2328.5 3445.5 2328.5 3520.06 2328.5 3580.5 2388.94 3580.5 2463.5 3580.5 2538.06 3520.06 2598.5 3445.5 2598.5 3370.94 2598.5 3310.5 2538.06 3310.5 2463.5Z" stroke="#C55A11" stroke-width="6.875" stroke-linecap="butt" stroke-linejoin="miter" stroke-miterlimit="8" stroke-opacity="1" fill="#F8CBAD" fill-rule="evenodd" fill-opacity="1"/><text fill="#000000" fill-opacity="1" font-family="Monaco,Monaco_MSFontService,sans-serif" font-style="normal" font-variant="normal" font-weight="700" font-stretch="normal" font-size="92" text-anchor="start" direction="ltr" writing-mode="lr-tb" unicode-bidi="normal" text-decoration="none" transform="matrix(1 0 0 1 3416.76 2496)">p</text><path d="M3310.5 2868C3310.5 2793.72 3370.94 2733.5 3445.5 2733.5 3520.06 2733.5 3580.5 2793.72 3580.5 2868 3580.5 2942.28 3520.06 3002.5 3445.5 3002.5 3370.94 3002.5 3310.5 2942.28 3310.5 2868Z" stroke="#C55A11" stroke-width="6.875" stroke-linecap="butt" stroke-linejoin="miter" stroke-miterlimit="8" stroke-opacity="1" fill="#F9C8F0" fill-rule="evenodd" fill-opacity="1"/><text fill="#000000" fill-opacity="1" font-family="Monaco,Monaco_MSFontService,sans-serif" font-style="normal" font-variant="normal" font-weight="700" font-stretch="normal" font-size="92" text-anchor="start" direction="ltr" writing-mode="lr-tb" unicode-bidi="normal" text-decoration="none" transform="matrix(1 0 0 1 3416.76 2900)">p</text><path d="M3310.5 3272C3310.5 3197.72 3370.94 3137.5 3445.5 3137.5 3520.06 3137.5 3580.5 3197.72 3580.5 3272 3580.5 3346.28 3520.06 3406.5 3445.5 3406.5 3370.94 3406.5 3310.5 3346.28 3310.5 3272Z" stroke="#C55A11" stroke-width="6.875" stroke-linecap="butt" stroke-linejoin="miter" stroke-miterlimit="8" stroke-opacity="1" fill="#F8CBAD" fill-rule="evenodd" fill-opacity="1"/><text fill="#000000" fill-opacity="1" font-family="Monaco,Monaco_MSFontService,sans-serif" font-style="normal" font-variant="normal" font-weight="700" font-stretch="normal" font-size="92" text-anchor="start" direction="ltr" writing-mode="lr-tb" unicode-bidi="normal" text-decoration="none" transform="matrix(1 0 0 1 3416.76 3304)">l</text><path d="M3310.5 3676C3310.5 3601.72 3370.94 3541.5 3445.5 3541.5 3520.06 3541.5 3580.5 3601.72 3580.5 3676 3580.5 3750.28 3520.06 3810.5 3445.5 3810.5 3370.94 3810.5 3310.5 3750.28 3310.5 3676Z" stroke="#C55A11" stroke-width="6.875" stroke-linecap="butt" stroke-linejoin="miter" stroke-miterlimit="8" stroke-opacity="1" fill="#F9C8F0" fill-rule="evenodd" fill-opacity="1"/><text fill="#000000" fill-opacity="1" font-family="Monaco,Monaco_MSFontService,sans-serif" font-style="normal" font-variant="normal" font-weight="700" font-stretch="normal" font-size="92" text-anchor="start" direction="ltr" writing-mode="lr-tb" unicode-bidi="normal" text-decoration="none" transform="matrix(1 0 0 1 3416.76 3709)">e</text><path d="M3451.88 2194 3451.88 2294.37 3438.13 2294.37 3438.12 2194ZM3465.63 2287.5 3445 2328.75 3424.38 2287.5Z" fill="#DD4E8E" fill-rule="nonzero" fill-opacity="1"/><path d="M3451.88 2598 3451.88 2698.37 3438.13 2698.37 3438.12 2598ZM3465.63 2691.5 3445 2732.75 3424.38 2691.5Z" fill="#DD4E8E" fill-rule="nonzero" fill-opacity="1"/><path d="M3451.88 3002 3451.88 3102.37 3438.13 3102.37 3438.12 3002ZM3465.63 3095.5 3445 3136.75 3424.38 3095.5Z" fill="#DD4E8E" fill-rule="nonzero" fill-opacity="1"/><path d="M3451.88 3406 3451.88 3506.37 3438.13 3506.37 3438.12 3406ZM3465.63 3499.5 3445 3540.75 3424.38 3499.5Z" fill="#DD4E8E" fill-rule="nonzero" fill-opacity="1"/><text fill="#000000" fill-opacity="1" font-family="Monaco,Monaco_MSFontService,sans-serif" font-style="normal" font-variant="normal" font-weight="700" font-stretch="normal" font-size="73" text-anchor="start" direction="ltr" writing-mode="lr-tb" unicode-bidi="normal" text-decoration="none" transform="matrix(1 0 0 1 3591.43 2885)">app</text><text fill="#000000" fill-opacity="1" font-family="Monaco,Monaco_MSFontService,sans-serif" font-style="normal" font-variant="normal" font-weight="700" font-stretch="normal" font-size="73" text-anchor="start" direction="ltr" writing-mode="lr-tb" unicode-bidi="normal" text-decoration="none" transform="matrix(1 0 0 1 3591.43 3694)">apple</text><path d="M1.53045-6.70249 737.033 161.243 733.972 174.648-1.53045 6.70249ZM733.391 146.307 769.015 175.598 724.208 186.522Z" fill="#DD4E8E" fill-rule="nonzero" fill-opacity="1" transform="matrix(-1 0 0 1 2386.01 1750)"/><path d="M1482.5 2465C1482.5 2390.72 1542.94 2330.5 1617.5 2330.5 1692.06 2330.5 1752.5 2390.72 1752.5 2465 1752.5 2539.28 1692.06 2599.5 1617.5 2599.5 1542.94 2599.5 1482.5 2539.28 1482.5 2465Z" stroke="#C55A11" stroke-width="6.875" stroke-linecap="butt" stroke-linejoin="miter" stroke-miterlimit="8" stroke-opacity="1" fill="#F8CBAD" fill-rule="evenodd" fill-opacity="1"/><text fill="#000000" fill-opacity="1" font-family="Monaco,Monaco_MSFontService,sans-serif" font-style="normal" font-variant="normal" font-weight="700" font-stretch="normal" font-size="92" text-anchor="start" direction="ltr" writing-mode="lr-tb" unicode-bidi="normal" text-decoration="none" transform="matrix(1 0 0 1 1588.43 2497)">h</text><path d="M1623.88 2195 1623.88 2295.37 1610.13 2295.37 1610.12 2195ZM1637.63 2288.5 1617 2329.75 1596.38 2288.5Z" fill="#DD4E8E" fill-rule="nonzero" fill-opacity="1"/><path d="M1482.5 2869C1482.5 2794.72 1542.94 2734.5 1617.5 2734.5 1692.06 2734.5 1752.5 2794.72 1752.5 2869 1752.5 2943.28 1692.06 3003.5 1617.5 3003.5 1542.94 3003.5 1482.5 2943.28 1482.5 2869Z" stroke="#C55A11" stroke-width="6.875" stroke-linecap="butt" stroke-linejoin="miter" stroke-miterlimit="8" stroke-opacity="1" fill="#F8CBAD" fill-rule="evenodd" fill-opacity="1"/><text fill="#000000" fill-opacity="1" font-family="Monaco,Monaco_MSFontService,sans-serif" font-style="normal" font-variant="normal" font-weight="700" font-stretch="normal" font-size="92" text-anchor="start" direction="ltr" writing-mode="lr-tb" unicode-bidi="normal" text-decoration="none" transform="matrix(1 0 0 1 1588.43 2902)">i</text><path d="M1623.88 2599 1623.88 2699.37 1610.13 2699.37 1610.12 2599ZM1637.63 2692.5 1617 2733.75 1596.38 2692.5Z" fill="#DD4E8E" fill-rule="nonzero" fill-opacity="1"/><path d="M2135.5 2869C2135.5 2794.72 2195.72 2734.5 2270 2734.5 2344.28 2734.5 2404.5 2794.72 2404.5 2869 2404.5 2943.28 2344.28 3003.5 2270 3003.5 2195.72 3003.5 2135.5 2943.28 2135.5 2869Z" stroke="#C55A11" stroke-width="6.875" stroke-linecap="butt" stroke-linejoin="miter" stroke-miterlimit="8" stroke-opacity="1" fill="#F9C8F0" fill-rule="evenodd" fill-opacity="1"/><text fill="#000000" fill-opacity="1" font-family="Monaco,Monaco_MSFontService,sans-serif" font-style="normal" font-variant="normal" font-weight="700" font-stretch="normal" font-size="92" text-anchor="start" direction="ltr" writing-mode="lr-tb" unicode-bidi="normal" text-decoration="none" transform="matrix(1 0 0 1 2240.99 2902)">e</text><path d="M827.5 2869C827.5 2794.72 887.941 2734.5 962.5 2734.5 1037.06 2734.5 1097.5 2794.72 1097.5 2869 1097.5 2943.28 1037.06 3003.5 962.5 3003.5 887.941 3003.5 827.5 2943.28 827.5 2869Z" stroke="#C55A11" stroke-width="6.875" stroke-linecap="butt" stroke-linejoin="miter" stroke-miterlimit="8" stroke-opacity="1" fill="#F8CBAD" fill-rule="evenodd" fill-opacity="1"/><text fill="#000000" fill-opacity="1" font-family="Monaco,Monaco_MSFontService,sans-serif" font-style="normal" font-variant="normal" font-weight="700" font-stretch="normal" font-size="92" text-anchor="start" direction="ltr" writing-mode="lr-tb" unicode-bidi="normal" text-decoration="none" transform="matrix(1 0 0 1 933.571 2902)">a</text><path d="M1714.05 2553.44 2238.53 2717.39 2234.43 2730.52 1709.95 2566.56ZM2236.07 2702.22 2269.29 2734.21 2223.76 2741.59Z" fill="#DD4E8E" fill-rule="nonzero" fill-opacity="1"/><path d="M2.04363-6.56424 528.798 157.429 524.711 170.558-2.04363 6.56424ZM526.321 142.257 559.576 174.212 514.06 181.643Z" fill="#DD4E8E" fill-rule="nonzero" fill-opacity="1" transform="matrix(-1 0 0 1 1521.58 2560)"/><text fill="#000000" fill-opacity="1" font-family="Monaco,Monaco_MSFontService,sans-serif" font-style="normal" font-variant="normal" font-weight="700" font-stretch="normal" font-size="73" text-anchor="start" direction="ltr" writing-mode="lr-tb" unicode-bidi="normal" text-decoration="none" transform="matrix(1 0 0 1 2418.18 2886)">the</text><path d="M2137.5 3273.5C2137.5 3198.94 2197.94 3138.5 2272.5 3138.5 2347.06 3138.5 2407.5 3198.94 2407.5 3273.5 2407.5 3348.06 2347.06 3408.5 2272.5 3408.5 2197.94 3408.5 2137.5 3348.06 2137.5 3273.5Z" stroke="#C55A11" stroke-width="6.875" stroke-linecap="butt" stroke-linejoin="miter" stroke-miterlimit="8" stroke-opacity="1" fill="#F8CBAD" fill-rule="evenodd" fill-opacity="1"/><text fill="#000000" fill-opacity="1" font-family="Monaco,Monaco_MSFontService,sans-serif" font-style="normal" font-variant="normal" font-weight="700" font-stretch="normal" font-size="92" text-anchor="start" direction="ltr" writing-mode="lr-tb" unicode-bidi="normal" text-decoration="none" transform="matrix(1 0 0 1 2243.51 3306)">r</text><path d="M2137.5 3676C2137.5 3601.72 2197.94 3541.5 2272.5 3541.5 2347.06 3541.5 2407.5 3601.72 2407.5 3676 2407.5 3750.28 2347.06 3810.5 2272.5 3810.5 2197.94 3810.5 2137.5 3750.28 2137.5 3676Z" stroke="#C55A11" stroke-width="6.875" stroke-linecap="butt" stroke-linejoin="miter" stroke-miterlimit="8" stroke-opacity="1" fill="#F9C8F0" fill-rule="evenodd" fill-opacity="1"/><text fill="#000000" fill-opacity="1" font-family="Monaco,Monaco_MSFontService,sans-serif" font-style="normal" font-variant="normal" font-weight="700" font-stretch="normal" font-size="92" text-anchor="start" direction="ltr" writing-mode="lr-tb" unicode-bidi="normal" text-decoration="none" transform="matrix(1 0 0 1 2243.51 3709)">e</text><path d="M1482.5 3273.5C1482.5 3198.94 1542.94 3138.5 1617.5 3138.5 1692.06 3138.5 1752.5 3198.94 1752.5 3273.5 1752.5 3348.06 1692.06 3408.5 1617.5 3408.5 1542.94 3408.5 1482.5 3348.06 1482.5 3273.5Z" stroke="#C55A11" stroke-width="6.875" stroke-linecap="butt" stroke-linejoin="miter" stroke-miterlimit="8" stroke-opacity="1" fill="#F9C8F0" fill-rule="evenodd" fill-opacity="1"/><text fill="#000000" fill-opacity="1" font-family="Monaco,Monaco_MSFontService,sans-serif" font-style="normal" font-variant="normal" font-weight="700" font-stretch="normal" font-size="92" text-anchor="start" direction="ltr" writing-mode="lr-tb" unicode-bidi="normal" text-decoration="none" transform="matrix(1 0 0 1 1588.66 3306)">s</text><path d="M827.5 3273.5C827.5 3198.94 887.941 3138.5 962.5 3138.5 1037.06 3138.5 1097.5 3198.94 1097.5 3273.5 1097.5 3348.06 1037.06 3408.5 962.5 3408.5 887.941 3408.5 827.5 3348.06 827.5 3273.5Z" stroke="#C55A11" stroke-width="6.875" stroke-linecap="butt" stroke-linejoin="miter" stroke-miterlimit="8" stroke-opacity="1" fill="#F9C8F0" fill-rule="evenodd" fill-opacity="1"/><text fill="#000000" fill-opacity="1" font-family="Monaco,Monaco_MSFontService,sans-serif" font-style="normal" font-variant="normal" font-weight="700" font-stretch="normal" font-size="92" text-anchor="start" direction="ltr" writing-mode="lr-tb" unicode-bidi="normal" text-decoration="none" transform="matrix(1 0 0 1 933.8 3306)">t</text><text fill="#000000" fill-opacity="1" font-family="Monaco,Monaco_MSFontService,sans-serif" font-style="normal" font-variant="normal" font-weight="700" font-stretch="normal" font-size="73" text-anchor="start" direction="ltr" writing-mode="lr-tb" unicode-bidi="normal" text-decoration="none" transform="matrix(1 0 0 1 2418.18 3695)">there</text><text fill="#000000" fill-opacity="1" font-family="Monaco,Monaco_MSFontService,sans-serif" font-style="normal" font-variant="normal" font-weight="700" font-stretch="normal" font-size="73" text-anchor="start" direction="ltr" writing-mode="lr-tb" unicode-bidi="normal" text-decoration="none" transform="matrix(1 0 0 1 1763.33 3291)">this</text><text fill="#000000" fill-opacity="1" font-family="Monaco,Monaco_MSFontService,sans-serif" font-style="normal" font-variant="normal" font-weight="700" font-stretch="normal" font-size="73" text-anchor="start" direction="ltr" writing-mode="lr-tb" unicode-bidi="normal" text-decoration="none" transform="matrix(1 0 0 1 1108.47 3291)">that</text><path d="M2276.87 3002.88 2278.58 3103.26 2264.83 3103.49 2263.13 3003.12ZM2292.21 3096.15 2272.29 3137.75 2250.97 3096.85Z" fill="#DD4E8E" fill-rule="nonzero" fill-opacity="1"/><path d="M2278.87 3408 2278.88 3506.98 2265.12 3506.98 2265.12 3408ZM2292.62 3500.11 2272 3541.36 2251.38 3500.11Z" fill="#DD4E8E" fill-rule="nonzero" fill-opacity="1"/><path d="M1623.88 3003 1623.88 3103.37 1610.13 3103.37 1610.12 3003ZM1637.63 3096.5 1617 3137.75 1596.38 3096.5Z" fill="#DD4E8E" fill-rule="nonzero" fill-opacity="1"/><path d="M968.875 3003 968.875 3103.37 955.125 3103.37 955.125 3003ZM982.625 3096.5 962.001 3137.75 941.375 3096.5Z" fill="#DD4E8E" fill-rule="nonzero" fill-opacity="1"/><text fill="#000000" fill-opacity="1" font-family="Monaco,Monaco_MSFontService,sans-serif" font-style="normal" font-variant="normal" font-weight="700" font-stretch="normal" font-size="55" text-anchor="start" direction="ltr" writing-mode="lr-tb" unicode-bidi="normal" text-decoration="none" transform="matrix(1 0 0 1 3712.23 1604)">is_finished</text><text fill="#000000" fill-opacity="1" font-family="Monaco,Monaco_MSFontService,sans-serif" font-style="normal" font-variant="normal" font-weight="700" font-stretch="normal" font-size="55" text-anchor="start" direction="ltr" writing-mode="lr-tb" unicode-bidi="normal" text-decoration="none" transform="matrix(1 0 0 1 4090.36 1604)">: true</text><text fill="#000000" fill-opacity="1" font-family="Monaco,Monaco_MSFontService,sans-serif" font-style="normal" font-variant="normal" font-weight="700" font-stretch="normal" font-size="55" text-anchor="start" direction="ltr" writing-mode="lr-tb" unicode-bidi="normal" text-decoration="none" transform="matrix(1 0 0 1 3712.23 1783)">is_finished</text><text fill="#000000" fill-opacity="1" font-family="Monaco,Monaco_MSFontService,sans-serif" font-style="normal" font-variant="normal" font-weight="700" font-stretch="normal" font-size="55" text-anchor="start" direction="ltr" writing-mode="lr-tb" unicode-bidi="normal" text-decoration="none" transform="matrix(1 0 0 1 4090.36 1783)">: false</text><path d="M3558.5 1578C3558.5 1546.24 3584.24 1520.5 3616 1520.5 3647.76 1520.5 3673.5 1546.24 3673.5 1578 3673.5 1609.76 3647.76 1635.5 3616 1635.5 3584.24 1635.5 3558.5 1609.76 3558.5 1578Z" stroke="#C55A11" stroke-width="6.875" stroke-linecap="butt" stroke-linejoin="miter" stroke-miterlimit="8" stroke-opacity="1" fill="#F9C8F0" fill-rule="evenodd" fill-opacity="1"/><path d="M3560.5 1757C3560.5 1725.24 3586.24 1699.5 3618 1699.5 3649.76 1699.5 3675.5 1725.24 3675.5 1757 3675.5 1788.76 3649.76 1814.5 3618 1814.5 3586.24 1814.5 3560.5 1788.76 3560.5 1757Z" stroke="#C55A11" stroke-width="6.875" stroke-linecap="butt" stroke-linejoin="miter" stroke-miterlimit="8" stroke-opacity="1" fill="#F8CBAD" fill-rule="evenodd" fill-opacity="1"/></g></g></svg>